<svg width="24" height="24" viewBox="0 0 24 24" fill="none" xmlns="http://www.w3.org/2000/svg">
<path d="M12 0C5.374 0 0 5.373 0 12S5.374 24 12 24S24 18.627 24 12S18.626 0 12 0ZM5.568 18.845C5.25 18.845 4.995 18.59 4.995 18.272V9.126C4.995 8.808 5.25 8.553 5.568 8.553H7.578C7.896 8.553 8.151 8.808 8.151 9.126V18.272C8.151 18.59 7.896 18.845 7.578 18.845H5.568ZM6.573 7.737C5.88 7.737 5.319 7.176 5.319 6.483C5.319 5.79 5.88 5.229 6.573 5.229C7.266 5.229 7.827 5.79 7.827 6.483C7.827 7.176 7.266 7.737 6.573 7.737ZM18.681 18.845C18.363 18.845 18.108 18.59 18.108 18.272V13.887C18.108 12.024 17.574 11.301 16.506 11.301C15.345 11.301 14.175 12.024 14.175 13.887V18.272C14.175 18.59 13.92 18.845 13.602 18.845H11.592C11.274 18.845 11.019 18.59 11.019 18.272V9.126C11.019 8.808 11.274 8.553 11.592 8.553H13.602C13.92 8.553 14.175 8.808 14.175 9.126V9.909C14.829 9.024 15.888 8.346 17.451 8.346C19.809 8.346 21.681 9.759 21.681 12.93V18.272C21.681 18.59 21.426 18.845 21.108 18.845H18.681Z" fill="#0077B5"/>
</svg>