<svg width="24" height="24" viewBox="0 0 24 24" fill="none" xmlns="http://www.w3.org/2000/svg">
  <rect width="24" height="24" rx="4" fill="#24292E"/>
  <path fill-rule="evenodd" clip-rule="evenodd" d="M12 6C8.686 6 6 8.686 6 12C6 14.657 7.657 16.882 10.029 17.657C10.329 17.714 10.443 17.529 10.443 17.371C10.443 17.229 10.437 16.8 10.434 16.243C8.857 16.6 8.514 15.457 8.514 15.457C8.243 14.786 7.857 14.6 7.857 14.6C7.314 14.229 7.9 14.237 7.9 14.237C8.5 14.279 8.821 14.864 8.821 14.864C9.35 15.786 10.229 15.521 10.457 15.371C10.514 14.986 10.671 14.721 10.843 14.571C9.629 14.421 8.357 13.921 8.357 11.771C8.357 11.129 8.586 10.6 8.836 10.186C8.771 10.036 8.557 9.443 8.9 8.621C8.9 8.621 9.4 8.457 10.429 9.136C10.914 8.993 11.457 8.921 12 8.921C12.543 8.921 13.086 8.993 13.571 9.136C14.6 8.457 15.1 8.621 15.1 8.621C15.443 9.443 15.229 10.036 15.164 10.186C15.414 10.6 15.643 11.129 15.643 11.771C15.643 13.929 14.364 14.421 13.15 14.571C13.364 14.757 13.564 15.121 13.564 15.679C13.564 16.464 13.557 17.1 13.557 17.371C13.557 17.529 13.671 17.714 13.971 17.657C16.343 16.882 18 14.657 18 12C18 8.686 15.314 6 12 6Z" fill="white"/>
</svg>
