<svg width="24" height="24" viewBox="0 0 24 24" fill="none" xmlns="http://www.w3.org/2000/svg">
<path d="M12 21.42L8.06 9.8H15.94L12 21.42Z" fill="#FC6D26"/>
<path d="M12 21.42L15.94 9.8H20.68L12 21.42Z" fill="#E24329"/>
<path d="M20.68 9.8L22.14 13.8C22.27 14.15 22.15 14.55 21.85 14.8L12 21.42L20.68 9.8Z" fill="#FC6D26"/>
<path d="M20.68 9.8H15.94L17.65 4.76C17.74 4.54 18.02 4.54 18.11 4.76L20.68 9.8Z" fill="#FCA326"/>
<path d="M12 21.42L8.06 9.8H3.32L12 21.42Z" fill="#E24329"/>
<path d="M3.32 9.8L1.86 13.8C1.73 14.15 1.85 14.55 2.15 14.8L12 21.42L3.32 9.8Z" fill="#FC6D26"/>
<path d="M3.32 9.8H8.06L6.35 4.76C6.26 4.54 5.98 4.54 5.89 4.76L3.32 9.8Z" fill="#FCA326"/>
</svg>