<svg width="24" height="24" viewBox="0 0 24 24" fill="none" xmlns="http://www.w3.org/2000/svg">
<path d="M12 24C18.627 24 24 18.627 24 12C24 5.373 18.627 0 12 0C5.373 0 0 5.373 0 12C0 18.627 5.373 24 12 24Z" fill="#205081"/>
<path d="M5.82 8.46H9.24V15.54H5.82V8.46ZM7.53 6C6.675 6 6 6.675 6 7.53S6.675 9.06 7.53 9.06S9.06 8.385 9.06 7.53S8.385 6 7.53 6ZM10.56 8.46H13.8V9.87H13.845C14.31 9.06 15.375 8.205 16.95 8.205C19.755 8.205 20.28 9.96 20.28 12.24V15.54H16.86V12.78C16.86 11.475 16.83 9.795 15.015 9.795C13.17 9.795 12.87 11.205 12.87 12.69V15.54H9.45V8.46H10.56Z" fill="white"/>
</svg>