<svg xmlns="http://www.w3.org/2000/svg" width="1200" height="900" viewBox="0 0 1200 900">
  <defs>
    <pattern id="grid" width="24" height="24" patternUnits="userSpaceOnUse">
      <path d="M 24 0 L 0 0 0 24" fill="none" stroke="#141c25" stroke-width="1"/>
    </pattern>
    <linearGradient id="panel" x1="0" y1="0" x2="1" y2="1">
      <stop offset="0" stop-color="#0b0f13"/>
      <stop offset="1" stop-color="#101821"/>
    </linearGradient>
    <linearGradient id="amber" x1="0" y1="0" x2="1" y2="0">
      <stop offset="0" stop-color="#f4b74a"/>
      <stop offset="1" stop-color="#ffd585"/>
    </linearGradient>
    <linearGradient id="blue" x1="0" y1="0" x2="1" y2="0">
      <stop offset="0" stop-color="#6bb6ff"/>
      <stop offset="1" stop-color="#a1d1ff"/>
    </linearGradient>
  </defs>

  <rect width="1200" height="900" fill="#0a0e12"/>
  <rect width="1200" height="900" fill="url(#grid)" opacity="0.55"/>

  <!-- Panel -->
  <rect x="40" y="30" width="1120" height="840" rx="18" fill="url(#panel)" stroke="#1b2632" stroke-width="2"/>

  <!-- Header (minimal icons) -->
  <rect x="40" y="30" width="1120" height="70" rx="18" fill="#0f151c"/>
  <text x="70" y="72" fill="#f2f5f7" font-size="18" font-family="IBM Plex Mono, Consolas, monospace">NAVI</text>
  <text x="130" y="72" fill="#8aa0b5" font-size="12" font-family="IBM Plex Mono, Consolas, monospace">agent.console</text>

  <!-- Minimal icon strip -->
  <!-- Hover glow example -->
  <circle cx="1040" cy="65" r="16" fill="none" stroke="#f4b74a" stroke-opacity="0.35"/>
  <circle cx="1040" cy="65" r="12" fill="#0b1016" stroke="#223042"/>
  <polygon points="1036,59 1036,71 1046,65" fill="#f4b74a"/>

  <circle cx="1080" cy="65" r="12" fill="#0b1016" stroke="#223042"/>
  <circle cx="1080" cy="65" r="4" fill="#7ad1ff"/>

  <circle cx="1120" cy="65" r="12" fill="#0b1016" stroke="#223042"/>
  <circle cx="1120" cy="60" r="3" fill="#b6c7d9"/>
  <rect x="1117" y="63" width="6" height="7" rx="2" fill="#b6c7d9"/>

  <!-- Columns -->
  <!-- Left column -->
  <rect x="60" y="120" width="250" height="720" rx="12" fill="#0b1016" stroke="#1f2b38"/>
  <text x="78" y="150" fill="#8aa0b5" font-size="11" font-family="IBM Plex Mono, Consolas, monospace" letter-spacing="1">TIMELINE</text>
  <rect x="80" y="170" width="6" height="250" rx="3" fill="#1b2632"/>
  <circle cx="83" cy="190" r="6" fill="url(#amber)"/>
  <circle cx="83" cy="240" r="6" fill="#2a3b4a"/>
  <circle cx="83" cy="290" r="6" fill="#2a3b4a"/>
  <circle cx="83" cy="340" r="6" fill="#2a3b4a"/>
  <circle cx="83" cy="390" r="6" fill="#2a3b4a"/>

  <text x="100" y="194" fill="#b6c7d9" font-size="11" font-family="IBM Plex Mono, Consolas, monospace">plan created</text>
  <text x="100" y="244" fill="#b6c7d9" font-size="11" font-family="IBM Plex Mono, Consolas, monospace">scope locked</text>
  <text x="100" y="294" fill="#b6c7d9" font-size="11" font-family="IBM Plex Mono, Consolas, monospace">task running</text>
  <text x="100" y="344" fill="#b6c7d9" font-size="11" font-family="IBM Plex Mono, Consolas, monospace">files edited</text>
  <text x="100" y="394" fill="#b6c7d9" font-size="11" font-family="IBM Plex Mono, Consolas, monospace">tests queued</text>

  <text x="78" y="460" fill="#8aa0b5" font-size="11" font-family="IBM Plex Mono, Consolas, monospace" letter-spacing="1">HISTORY</text>
  <rect x="78" y="480" width="214" height="54" rx="10" fill="#0f151d" stroke="#1f2b38"/>
  <text x="90" y="504" fill="#f2f5f7" font-size="11" font-family="IBM Plex Mono, Consolas, monospace">session: auth flow</text>
  <text x="90" y="522" fill="#7f94a8" font-size="10" font-family="IBM Plex Mono, Consolas, monospace">12 steps 路 passed</text>

  <rect x="78" y="544" width="214" height="54" rx="10" fill="#0f151d" stroke="#1f2b38"/>
  <text x="90" y="568" fill="#f2f5f7" font-size="11" font-family="IBM Plex Mono, Consolas, monospace">session: ci repair</text>
  <text x="90" y="586" fill="#7f94a8" font-size="10" font-family="IBM Plex Mono, Consolas, monospace">8 steps 路 partial</text>

  <rect x="78" y="608" width="214" height="54" rx="10" fill="#0f151d" stroke="#1f2b38"/>
  <text x="90" y="632" fill="#f2f5f7" font-size="11" font-family="IBM Plex Mono, Consolas, monospace">session: nav update</text>
  <text x="90" y="650" fill="#7f94a8" font-size="10" font-family="IBM Plex Mono, Consolas, monospace">19 steps 路 running</text>

  <!-- Middle column -->
  <rect x="330" y="120" width="540" height="720" rx="12" fill="#0b1016" stroke="#1f2b38"/>

  <text x="350" y="150" fill="#8aa0b5" font-size="11" font-family="IBM Plex Mono, Consolas, monospace" letter-spacing="1">CHAT</text>
  <rect x="350" y="165" width="500" height="120" rx="12" fill="#0f151d" stroke="#1f2b38"/>
  <text x="370" y="190" fill="#f2f5f7" font-size="12" font-family="IBM Plex Mono, Consolas, monospace">plan: implement oauth device flow + tool approvals + tests</text>
  <text x="370" y="212" fill="#7f94a8" font-size="11" font-family="IBM Plex Mono, Consolas, monospace">files: src/auth/AuthManager.ts, src/approvals/ToolGate.ts</text>
  <rect x="370" y="228" width="90" height="26" rx="6" fill="#0b1016" stroke="#f4b74a"/>
  <text x="387" y="246" fill="#f4b74a" font-size="11" font-family="IBM Plex Mono, Consolas, monospace">review</text>

  <rect x="400" y="300" width="450" height="70" rx="12" fill="#0b1016" stroke="#1f2b38"/>
  <text x="420" y="328" fill="#b6c7d9" font-size="12" font-family="IBM Plex Mono, Consolas, monospace">user: proceed. ask before running commands.</text>

  <text x="350" y="410" fill="#8aa0b5" font-size="11" font-family="IBM Plex Mono, Consolas, monospace" letter-spacing="1">LIVE ACTIVITY</text>
  <rect x="350" y="425" width="500" height="150" rx="12" fill="#0f151d" stroke="#1f2b38"/>
  <rect x="370" y="440" width="58" height="20" rx="10" fill="#0b1016" stroke="#f4b74a"/>
  <text x="385" y="455" fill="#f4b74a" font-size="10" font-family="IBM Plex Mono, Consolas, monospace">LIVE</text>
  <text x="440" y="455" fill="#7f94a8" font-size="10" font-family="IBM Plex Mono, Consolas, monospace">streaming events</text>

  <text x="370" y="480" fill="#b6c7d9" font-size="11" font-family="IBM Plex Mono, Consolas, monospace">[12:04:11] read file: src/auth/AuthManager.ts</text>
  <text x="370" y="500" fill="#b6c7d9" font-size="11" font-family="IBM Plex Mono, Consolas, monospace">[12:04:18] propose edit: device code flow</text>
  <text x="370" y="520" fill="#b6c7d9" font-size="11" font-family="IBM Plex Mono, Consolas, monospace">[12:04:23] awaiting approval: npm run test</text>
  <text x="370" y="540" fill="#b6c7d9" font-size="11" font-family="IBM Plex Mono, Consolas, monospace">[12:04:26] long task: indexing repo (42%)</text>

  <text x="350" y="610" fill="#8aa0b5" font-size="11" font-family="IBM Plex Mono, Consolas, monospace" letter-spacing="1">FILE EDITS</text>
  <rect x="350" y="625" width="500" height="140" rx="12" fill="#0f151d" stroke="#1f2b38"/>
  <text x="370" y="650" fill="#b6c7d9" font-size="11" font-family="IBM Plex Mono, Consolas, monospace">modified: src/auth/AuthManager.ts</text>
  <rect x="370" y="662" width="460" height="80" rx="8" fill="#0b1016" stroke="#223042"/>
  <text x="385" y="684" fill="#7ad1ff" font-size="11" font-family="IBM Plex Mono, Consolas, monospace">+ await approvalGate.request(command)</text>
  <text x="385" y="704" fill="#f48771" font-size="11" font-family="IBM Plex Mono, Consolas, monospace">- run(command)</text>

  <!-- Composer with icons -->
  <rect x="350" y="775" width="500" height="52" rx="12" fill="#0b1016" stroke="#223042"/>
  <!-- icon row inside composer -->
  <circle cx="370" cy="801" r="10" fill="#0b1016" stroke="#223042"/>
  <line x1="366" y1="801" x2="374" y2="801" stroke="#b6c7d9" stroke-width="1.5"/>
  <line x1="370" y1="797" x2="370" y2="805" stroke="#b6c7d9" stroke-width="1.5"/>

  <circle cx="398" cy="801" r="10" fill="#0b1016" stroke="#223042"/>
  <circle cx="398" cy="801" r="4" fill="none" stroke="#b6c7d9" stroke-width="1.2"/>
  <line x1="398" y1="801" x2="402" y2="797" stroke="#b6c7d9" stroke-width="1.2"/>

  <circle cx="426" cy="801" r="10" fill="#0b1016" stroke="#223042"/>
  <circle cx="422" cy="801" r="2" fill="#b6c7d9"/>
  <circle cx="430" cy="801" r="2" fill="#b6c7d9"/>
  <line x1="424" y1="801" x2="428" y2="801" stroke="#b6c7d9" stroke-width="1.2"/>

  <circle cx="454" cy="801" r="10" fill="#0b1016" stroke="#223042"/>
  <text x="450" y="805" fill="#b6c7d9" font-size="9" font-family="IBM Plex Mono, Consolas, monospace">M</text>

  <circle cx="482" cy="801" r="10" fill="#0b1016" stroke="#223042"/>
  <text x="478" y="805" fill="#b6c7d9" font-size="9" font-family="IBM Plex Mono, Consolas, monospace">A</text>

  <text x="510" y="806" fill="#6f8296" font-size="12" font-family="IBM Plex Mono, Consolas, monospace">ask: build auth flow, then run tests after approval</text>

  <!-- Right column -->
  <rect x="890" y="120" width="230" height="720" rx="12" fill="#0b1016" stroke="#1f2b38"/>

  <text x="908" y="150" fill="#8aa0b5" font-size="11" font-family="IBM Plex Mono, Consolas, monospace" letter-spacing="1">PLAN</text>
  <rect x="908" y="165" width="194" height="60" rx="10" fill="#0f151d" stroke="#1f2b38"/>
  <text x="920" y="190" fill="#f2f5f7" font-size="11" font-family="IBM Plex Mono, Consolas, monospace">1. auth device flow</text>
  <text x="920" y="208" fill="#7f94a8" font-size="10" font-family="IBM Plex Mono, Consolas, monospace">status: running</text>

  <rect x="908" y="235" width="194" height="60" rx="10" fill="#0f151d" stroke="#1f2b38"/>
  <text x="920" y="260" fill="#f2f5f7" font-size="11" font-family="IBM Plex Mono, Consolas, monospace">2. tool approvals</text>
  <text x="920" y="278" fill="#7f94a8" font-size="10" font-family="IBM Plex Mono, Consolas, monospace">status: pending</text>

  <rect x="908" y="305" width="194" height="60" rx="10" fill="#0f151d" stroke="#1f2b38"/>
  <text x="920" y="330" fill="#f2f5f7" font-size="11" font-family="IBM Plex Mono, Consolas, monospace">3. run tests</text>
  <text x="920" y="348" fill="#7f94a8" font-size="10" font-family="IBM Plex Mono, Consolas, monospace">status: blocked</text>

  <rect x="908" y="375" width="194" height="42" rx="8" fill="#0b1016" stroke="#f4b74a"/>
  <text x="930" y="402" fill="#f4b74a" font-size="11" font-family="IBM Plex Mono, Consolas, monospace">review full plan</text>

  <text x="908" y="450" fill="#8aa0b5" font-size="11" font-family="IBM Plex Mono, Consolas, monospace" letter-spacing="1">APPROVALS</text>
  <rect x="908" y="465" width="194" height="80" rx="10" fill="#0f151d" stroke="#1f2b38"/>
  <text x="920" y="490" fill="#b6c7d9" font-size="11" font-family="IBM Plex Mono, Consolas, monospace">tool: npm run test</text>
  <rect x="920" y="505" width="70" height="24" rx="6" fill="#0b1016" stroke="#f4b74a"/>
  <text x="936" y="522" fill="#f4b74a" font-size="10" font-family="IBM Plex Mono, Consolas, monospace">approve</text>
  <rect x="994" y="505" width="70" height="24" rx="6" fill="#0b1016" stroke="#3a4a5d"/>
  <text x="1013" y="522" fill="#8aa0b5" font-size="10" font-family="IBM Plex Mono, Consolas, monospace">deny</text>

  <text x="908" y="580" fill="#8aa0b5" font-size="11" font-family="IBM Plex Mono, Consolas, monospace" letter-spacing="1">CONNECTORS</text>
  <rect x="908" y="595" width="194" height="140" rx="10" fill="#0f151d" stroke="#1f2b38"/>
  <text x="920" y="620" fill="#b6c7d9" font-size="11" font-family="IBM Plex Mono, Consolas, monospace">github: connected</text>
  <text x="920" y="640" fill="#b6c7d9" font-size="11" font-family="IBM Plex Mono, Consolas, monospace">jira: connected</text>
  <text x="920" y="660" fill="#b6c7d9" font-size="11" font-family="IBM Plex Mono, Consolas, monospace">slack: connected</text>
  <text x="920" y="680" fill="#7f94a8" font-size="11" font-family="IBM Plex Mono, Consolas, monospace">confluence: off</text>
  <text x="920" y="700" fill="#7f94a8" font-size="11" font-family="IBM Plex Mono, Consolas, monospace">ci: on</text>

  <rect x="908" y="740" width="194" height="70" rx="10" fill="#0b1016" stroke="#223042"/>
  <text x="920" y="766" fill="#b6c7d9" font-size="11" font-family="IBM Plex Mono, Consolas, monospace">long task: repo index</text>
  <rect x="920" y="778" width="170" height="10" rx="5" fill="#1b2632"/>
  <rect x="920" y="778" width="72" height="10" rx="5" fill="url(#blue)"/>
  <text x="920" y="802" fill="#7f94a8" font-size="10" font-family="IBM Plex Mono, Consolas, monospace">eta: 18m 路 42%</text>
</svg>
