<svg xmlns="http://www.w3.org/2000/svg" width="1200" height="900" viewBox="0 0 1200 900">
  <defs>
    <pattern id="grid" width="28" height="28" patternUnits="userSpaceOnUse">
      <path d="M 28 0 L 0 0 0 28" fill="none" stroke="#151923" stroke-width="1"/>
    </pattern>
    <linearGradient id="ai" x1="0" y1="0" x2="1" y2="0">
      <stop offset="0" stop-color="#00aaff"/>
      <stop offset="1" stop-color="#9947eb"/>
    </linearGradient>
  </defs>

  <rect width="1200" height="900" fill="#0b0c0f"/>
  <rect width="1200" height="900" fill="url(#grid)" opacity="0.55"/>

  <!-- Panel -->
  <rect x="40" y="30" width="1120" height="840" rx="18" fill="#111317" stroke="#2b303b" stroke-width="2"/>

  <!-- Header -->
  <rect x="40" y="30" width="1120" height="64" rx="18" fill="#181b20"/>
  <text x="70" y="70" fill="#e9eaed" font-size="18" font-family="Inter, sans-serif" font-weight="600">NAVI</text>
  <text x="128" y="70" fill="#818898" font-size="12" font-family="Inter, sans-serif">agent.console</text>
  <circle cx="112" cy="64" r="4" fill="#00aaff"/>

  <!-- Header icons (minimal, line style) -->
  <circle cx="1080" cy="62" r="12" fill="#111317" stroke="#2b303b"/>
  <line x1="1076" y1="62" x2="1084" y2="62" stroke="#e9eaed" stroke-width="1.2"/>
  <line x1="1080" y1="58" x2="1080" y2="66" stroke="#e9eaed" stroke-width="1.2"/>

  <circle cx="1120" cy="62" r="12" fill="#111317" stroke="#2b303b"/>
  <circle cx="1120" cy="60" r="3" fill="#e9eaed"/>
  <rect x="1117" y="63" width="6" height="7" rx="2" fill="#e9eaed"/>

  <!-- Body -->
  <rect x="60" y="110" width="1080" height="740" rx="12" fill="#16181d" stroke="#2b303b"/>

  <!-- Chat -->
  <text x="80" y="140" fill="#818898" font-size="11" font-family="Inter, sans-serif" letter-spacing="1">CHAT</text>
  <rect x="80" y="155" width="1040" height="220" rx="12" fill="#1a1d23" stroke="#2b303b"/>

  <rect x="100" y="175" width="620" height="72" rx="12" fill="#16181d" stroke="#2b303b"/>
  <text x="120" y="198" fill="#e9eaed" font-size="12" font-family="Inter, sans-serif">Plan: implement OAuth device flow + approvals + tests.</text>
  <text x="120" y="218" fill="#818898" font-size="11" font-family="Inter, sans-serif">Files: src/auth/AuthManager.ts, src/approvals/ToolGate.ts</text>
  <rect x="120" y="228" width="80" height="22" rx="10" fill="#111317" stroke="url(#ai)"/>
  <text x="136" y="244" fill="#00aaff" font-size="10" font-family="Inter, sans-serif">review</text>

  <rect x="380" y="255" width="700" height="52" rx="12" fill="#111317" stroke="#2b303b"/>
  <text x="400" y="286" fill="#d5d7dd" font-size="12" font-family="Inter, sans-serif">User: proceed. Ask before running commands.</text>

  <!-- Activity chips -->
  <rect x="100" y="310" width="160" height="24" rx="12" fill="#111317" stroke="#2b303b"/>
  <text x="114" y="326" fill="#818898" font-size="10" font-family="JetBrains Mono, monospace">reading files</text>
  <rect x="270" y="310" width="160" height="24" rx="12" fill="#111317" stroke="#2b303b"/>
  <text x="286" y="326" fill="#818898" font-size="10" font-family="JetBrains Mono, monospace">diff ready</text>
  <rect x="440" y="310" width="170" height="24" rx="12" fill="#111317" stroke="#2b303b"/>
  <text x="456" y="326" fill="#818898" font-size="10" font-family="JetBrains Mono, monospace">awaiting approval</text>

  <!-- Workstream -->
  <text x="80" y="400" fill="#818898" font-size="11" font-family="Inter, sans-serif" letter-spacing="1">WORKSTREAM</text>
  <rect x="80" y="415" width="1040" height="190" rx="12" fill="#1a1d23" stroke="#2b303b"/>

  <text x="100" y="440" fill="#818898" font-size="10" font-family="JetBrains Mono, monospace">LIVE</text>
  <circle cx="142" cy="436" r="4" fill="#00aaff"/>
  <text x="160" y="440" fill="#818898" font-size="10" font-family="JetBrains Mono, monospace">streaming events</text>

  <text x="100" y="466" fill="#d5d7dd" font-size="11" font-family="JetBrains Mono, monospace">[12:04:11] read file: src/auth/AuthManager.ts</text>
  <text x="100" y="486" fill="#d5d7dd" font-size="11" font-family="JetBrains Mono, monospace">[12:04:18] propose edit: device code flow</text>
  <text x="100" y="506" fill="#d5d7dd" font-size="11" font-family="JetBrains Mono, monospace">[12:04:23] awaiting approval: npm run test</text>

  <text x="100" y="538" fill="#818898" font-size="10" font-family="JetBrains Mono, monospace">long task: repo index</text>
  <rect x="100" y="548" width="360" height="8" rx="4" fill="#2b303b"/>
  <rect x="100" y="548" width="150" height="8" rx="4" fill="url(#ai)"/>
  <text x="470" y="554" fill="#818898" font-size="10" font-family="JetBrains Mono, monospace">42% · eta 18m</text>

  <!-- Diff preview -->
  <text x="80" y="640" fill="#818898" font-size="11" font-family="Inter, sans-serif" letter-spacing="1">DIFF PREVIEW</text>
  <rect x="80" y="655" width="1040" height="110" rx="12" fill="#1a1d23" stroke="#2b303b"/>
  <text x="100" y="680" fill="#818898" font-size="10" font-family="JetBrains Mono, monospace">src/auth/AuthManager.ts</text>
  <rect x="100" y="690" width="1000" height="60" rx="8" fill="#0d0f12" stroke="#2b303b"/>
  <text x="118" y="712" fill="#4dc3ff" font-size="11" font-family="JetBrains Mono, monospace">+ await approvalGate.request(command)</text>
  <text x="118" y="732" fill="#676f7e" font-size="11" font-family="JetBrains Mono, monospace">- run(command)</text>

  <!-- Approval bar + composer icons -->
  <text x="80" y="790" fill="#818898" font-size="11" font-family="Inter, sans-serif" letter-spacing="1">APPROVAL</text>
  <rect x="80" y="805" width="720" height="45" rx="10" fill="#1a1d23" stroke="#2b303b"/>
  <text x="100" y="834" fill="#d5d7dd" font-size="11" font-family="JetBrains Mono, monospace">command: npm run test</text>
  <rect x="585" y="816" width="80" height="22" rx="8" fill="#111317" stroke="url(#ai)"/>
  <text x="602" y="832" fill="#00aaff" font-size="10" font-family="Inter, sans-serif">approve</text>
  <rect x="670" y="816" width="80" height="22" rx="8" fill="#111317" stroke="#2b303b"/>
  <text x="698" y="832" fill="#818898" font-size="10" font-family="Inter, sans-serif">deny</text>

  <rect x="820" y="805" width="300" height="45" rx="10" fill="#111317" stroke="#2b303b"/>

  <!-- Composer icon row (thin line icons) -->
  <circle cx="840" cy="828" r="10" fill="#111317" stroke="#2b303b"/>
  <line x1="836" y1="828" x2="844" y2="828" stroke="#e9eaed" stroke-width="1.1"/>
  <line x1="840" y1="824" x2="840" y2="832" stroke="#e9eaed" stroke-width="1.1"/>

  <circle cx="868" cy="828" r="10" fill="#111317" stroke="#2b303b"/>
  <circle cx="868" cy="828" r="4" fill="none" stroke="#e9eaed" stroke-width="1.1"/>
  <line x1="868" y1="828" x2="872" y2="824" stroke="#e9eaed" stroke-width="1.1"/>

  <circle cx="896" cy="828" r="10" fill="#111317" stroke="#2b303b"/>
  <path d="M892 826 L896 822 L900 826" stroke="#e9eaed" stroke-width="1.1" fill="none"/>
  <rect x="893" y="826" width="6" height="6" rx="1" stroke="#e9eaed" fill="none" stroke-width="1.1"/>

  <circle cx="924" cy="828" r="10" fill="#111317" stroke="#2b303b"/>
  <path d="M924 822 L926 826 L930 826 L927 829 L928 833 L924 831 L920 833 L921 829 L918 826 L922 826 Z" fill="#e9eaed"/>

  <circle cx="952" cy="828" r="10" fill="#111317" stroke="#2b303b"/>
  <path d="M948 828 L956 828" stroke="#e9eaed" stroke-width="1.1"/>
  <circle cx="951" cy="828" r="2" fill="#e9eaed"/>

  <text x="980" y="833" fill="#818898" font-size="11" font-family="Inter, sans-serif">message NAVI...</text>
</svg>
