<svg xmlns="http://www.w3.org/2000/svg" width="1200" height="900" viewBox="0 0 1200 900">
  <defs>
    <pattern id="grid" width="24" height="24" patternUnits="userSpaceOnUse">
      <path d="M 24 0 L 0 0 0 24" fill="none" stroke="#141c25" stroke-width="1"/>
    </pattern>
    <linearGradient id="panel" x1="0" y1="0" x2="1" y2="1">
      <stop offset="0" stop-color="#0b0f13"/>
      <stop offset="1" stop-color="#101821"/>
    </linearGradient>
    <linearGradient id="amber" x1="0" y1="0" x2="1" y2="0">
      <stop offset="0" stop-color="#f4b74a"/>
      <stop offset="1" stop-color="#ffd585"/>
    </linearGradient>
    <linearGradient id="blue" x1="0" y1="0" x2="1" y2="0">
      <stop offset="0" stop-color="#6bb6ff"/>
      <stop offset="1" stop-color="#a1d1ff"/>
    </linearGradient>
  </defs>

  <rect width="1200" height="900" fill="#0a0e12"/>
  <rect width="1200" height="900" fill="url(#grid)" opacity="0.55"/>

  <!-- Panel -->
  <rect x="40" y="30" width="1120" height="840" rx="18" fill="url(#panel)" stroke="#1b2632" stroke-width="2"/>

  <!-- Header (minimal icons) -->
  <rect x="40" y="30" width="1120" height="70" rx="18" fill="#0f151c"/>
  <text x="70" y="72" fill="#f2f5f7" font-size="18" font-family="IBM Plex Mono, Consolas, monospace">NAVI</text>
  <text x="130" y="72" fill="#8aa0b5" font-size="12" font-family="IBM Plex Mono, Consolas, monospace">agent.console</text>

  <!-- Minimal icon strip -->
  <circle cx="1020" cy="65" r="12" fill="#0b1016" stroke="#223042"/>
  <line x1="1016" y1="65" x2="1024" y2="65" stroke="#f4b74a" stroke-width="1.6"/>
  <line x1="1020" y1="61" x2="1020" y2="69" stroke="#f4b74a" stroke-width="1.6"/>

  <circle cx="1060" cy="65" r="12" fill="#0b1016" stroke="#223042"/>
  <circle cx="1060" cy="65" r="4" fill="#7ad1ff"/>

  <circle cx="1100" cy="65" r="12" fill="#0b1016" stroke="#223042"/>
  <circle cx="1100" cy="60" r="3" fill="#b6c7d9"/>
  <rect x="1097" y="63" width="6" height="7" rx="2" fill="#b6c7d9"/>

  <!-- Stop run icon with hover glow -->
  <circle cx="1140" cy="65" r="16" fill="none" stroke="#f4b74a" stroke-opacity="0.35"/>
  <circle cx="1140" cy="65" r="12" fill="#0b1016" stroke="#f4b74a"/>
  <rect x="1136" y="61" width="8" height="8" rx="2" fill="#f4b74a"/>

  <!-- Main content -->
  <rect x="60" y="120" width="1080" height="720" rx="12" fill="#0b1016" stroke="#1f2b38"/>

  <!-- Running banner -->
  <rect x="80" y="140" width="1040" height="60" rx="10" fill="#0f151d" stroke="#1f2b38"/>
  <text x="100" y="170" fill="#f2f5f7" font-size="12" font-family="IBM Plex Mono, Consolas, monospace">running: build device flow + apply approvals + tests</text>
  <rect x="100" y="180" width="900" height="8" rx="4" fill="#1b2632"/>
  <rect x="100" y="180" width="360" height="8" rx="4" fill="url(#amber)"/>
  <text x="1010" y="184" fill="#7f94a8" font-size="10" font-family="IBM Plex Mono, Consolas, monospace">34%</text>

  <!-- Activity stream -->
  <rect x="80" y="220" width="520" height="260" rx="12" fill="#0f151d" stroke="#1f2b38"/>
  <text x="100" y="246" fill="#8aa0b5" font-size="11" font-family="IBM Plex Mono, Consolas, monospace" letter-spacing="1">LIVE ACTIVITY STREAM</text>
  <rect x="100" y="258" width="58" height="20" rx="10" fill="#0b1016" stroke="#f4b74a"/>
  <text x="115" y="273" fill="#f4b74a" font-size="10" font-family="IBM Plex Mono, Consolas, monospace">LIVE</text>

  <text x="100" y="300" fill="#b6c7d9" font-size="11" font-family="IBM Plex Mono, Consolas, monospace">[12:06:02] searching repo for auth patterns</text>
  <text x="100" y="322" fill="#b6c7d9" font-size="11" font-family="IBM Plex Mono, Consolas, monospace">[12:06:11] draft patch: src/auth/AuthManager.ts</text>
  <text x="100" y="344" fill="#b6c7d9" font-size="11" font-family="IBM Plex Mono, Consolas, monospace">[12:06:23] apply patch: 42 lines changed</text>
  <text x="100" y="366" fill="#b6c7d9" font-size="11" font-family="IBM Plex Mono, Consolas, monospace">[12:06:28] awaiting approval: npm run test</text>
  <text x="100" y="388" fill="#b6c7d9" font-size="11" font-family="IBM Plex Mono, Consolas, monospace">[12:06:41] long task: index docs (47%)</text>
  <text x="100" y="410" fill="#b6c7d9" font-size="11" font-family="IBM Plex Mono, Consolas, monospace">[12:06:55] streaming logs...</text>

  <!-- File editing -->
  <rect x="620" y="220" width="500" height="260" rx="12" fill="#0f151d" stroke="#1f2b38"/>
  <text x="640" y="246" fill="#8aa0b5" font-size="11" font-family="IBM Plex Mono, Consolas, monospace" letter-spacing="1">EDITING FILES</text>
  <text x="640" y="270" fill="#b6c7d9" font-size="11" font-family="IBM Plex Mono, Consolas, monospace">active: src/auth/AuthManager.ts</text>
  <rect x="640" y="282" width="460" height="150" rx="8" fill="#0b1016" stroke="#223042"/>
  <text x="656" y="304" fill="#7ad1ff" font-size="11" font-family="IBM Plex Mono, Consolas, monospace">+ const deviceFlow = await startDeviceFlow()</text>
  <text x="656" y="324" fill="#7ad1ff" font-size="11" font-family="IBM Plex Mono, Consolas, monospace">+ await approvalGate.request("open verification uri")</text>
  <text x="656" y="344" fill="#f48771" font-size="11" font-family="IBM Plex Mono, Consolas, monospace">- legacyToken = ""</text>
  <text x="656" y="364" fill="#7ad1ff" font-size="11" font-family="IBM Plex Mono, Consolas, monospace">+ await pollForToken()</text>

  <rect x="640" y="442" width="120" height="24" rx="6" fill="#0b1016" stroke="#f4b74a"/>
  <text x="658" y="459" fill="#f4b74a" font-size="10" font-family="IBM Plex Mono, Consolas, monospace">apply pending</text>

  <!-- Approvals -->
  <rect x="80" y="500" width="520" height="140" rx="12" fill="#0f151d" stroke="#1f2b38"/>
  <text x="100" y="526" fill="#8aa0b5" font-size="11" font-family="IBM Plex Mono, Consolas, monospace" letter-spacing="1">APPROVAL QUEUE</text>
  <text x="100" y="550" fill="#b6c7d9" font-size="11" font-family="IBM Plex Mono, Consolas, monospace">command: npm run test</text>
  <rect x="100" y="565" width="80" height="24" rx="6" fill="#0b1016" stroke="#f4b74a"/>
  <text x="117" y="582" fill="#f4b74a" font-size="10" font-family="IBM Plex Mono, Consolas, monospace">approve</text>
  <rect x="186" y="565" width="80" height="24" rx="6" fill="#0b1016" stroke="#3a4a5d"/>
  <text x="207" y="582" fill="#8aa0b5" font-size="10" font-family="IBM Plex Mono, Consolas, monospace">deny</text>

  <text x="300" y="550" fill="#7f94a8" font-size="11" font-family="IBM Plex Mono, Consolas, monospace">reason: test after patch apply</text>

  <!-- Long task -->
  <rect x="620" y="500" width="500" height="140" rx="12" fill="#0f151d" stroke="#1f2b38"/>
  <text x="640" y="526" fill="#8aa0b5" font-size="11" font-family="IBM Plex Mono, Consolas, monospace" letter-spacing="1">LONG TASKS</text>
  <text x="640" y="550" fill="#b6c7d9" font-size="11" font-family="IBM Plex Mono, Consolas, monospace">indexing repo: 47% · eta 14m</text>
  <rect x="640" y="562" width="460" height="10" rx="5" fill="#1b2632"/>
  <rect x="640" y="562" width="216" height="10" rx="5" fill="url(#blue)"/>
  <text x="640" y="590" fill="#7f94a8" font-size="11" font-family="IBM Plex Mono, Consolas, monospace">embedding: docs + code chunks</text>

  <!-- Composer with icons -->
  <rect x="80" y="660" width="1040" height="140" rx="12" fill="#0b1016" stroke="#223042"/>
  <circle cx="105" cy="690" r="11" fill="#0b1016" stroke="#223042"/>
  <line x1="101" y1="690" x2="109" y2="690" stroke="#b6c7d9" stroke-width="1.5"/>
  <line x1="105" y1="686" x2="105" y2="694" stroke="#b6c7d9" stroke-width="1.5"/>

  <circle cx="135" cy="690" r="11" fill="#0b1016" stroke="#223042"/>
  <circle cx="135" cy="690" r="4" fill="none" stroke="#b6c7d9" stroke-width="1.2"/>
  <line x1="135" y1="690" x2="139" y2="686" stroke="#b6c7d9" stroke-width="1.2"/>

  <circle cx="165" cy="690" r="11" fill="#0b1016" stroke="#223042"/>
  <circle cx="161" cy="690" r="2" fill="#b6c7d9"/>
  <circle cx="169" cy="690" r="2" fill="#b6c7d9"/>
  <line x1="163" y1="690" x2="167" y2="690" stroke="#b6c7d9" stroke-width="1.2"/>

  <circle cx="195" cy="690" r="11" fill="#0b1016" stroke="#223042"/>
  <text x="191" y="694" fill="#b6c7d9" font-size="9" font-family="IBM Plex Mono, Consolas, monospace">M</text>

  <circle cx="225" cy="690" r="11" fill="#0b1016" stroke="#223042"/>
  <text x="221" y="694" fill="#b6c7d9" font-size="9" font-family="IBM Plex Mono, Consolas, monospace">A</text>

  <text x="100" y="735" fill="#6f8296" font-size="12" font-family="IBM Plex Mono, Consolas, monospace">message NAVI (shift+enter for newline)</text>
  <rect x="980" y="710" width="120" height="36" rx="8" fill="url(#amber)"/>
  <text x="1015" y="734" fill="#0b0f13" font-size="12" font-family="IBM Plex Mono, Consolas, monospace">send</text>
</svg>
