<svg xmlns="http://www.w3.org/2000/svg" width="1200" height="900" viewBox="0 0 1200 900">
  <defs>
    <pattern id="grid" width="28" height="28" patternUnits="userSpaceOnUse">
      <path d="M 28 0 L 0 0 0 28" fill="none" stroke="#141b23" stroke-width="1"/>
    </pattern>
    <linearGradient id="panel" x1="0" y1="0" x2="1" y2="1">
      <stop offset="0" stop-color="#0c1116"/>
      <stop offset="1" stop-color="#121821"/>
    </linearGradient>
    <linearGradient id="accent" x1="0" y1="0" x2="1" y2="0">
      <stop offset="0" stop-color="#57d6ff"/>
      <stop offset="1" stop-color="#8be6ff"/>
    </linearGradient>
  </defs>

  <rect width="1200" height="900" fill="#0a0d10"/>
  <rect width="1200" height="900" fill="url(#grid)" opacity="0.55"/>

  <!-- Panel -->
  <rect x="40" y="30" width="1120" height="840" rx="18" fill="url(#panel)" stroke="#1c2430" stroke-width="2"/>

  <!-- Header (minimal icons) -->
  <rect x="40" y="30" width="1120" height="64" rx="18" fill="#0f151c"/>
  <text x="70" y="70" fill="#eef3f8" font-size="18" font-family="Sora, Space Grotesk, sans-serif" font-weight="600">NAVI</text>
  <text x="130" y="70" fill="#8fa2b5" font-size="12" font-family="Sora, Space Grotesk, sans-serif">agent.console</text>
  <circle cx="112" cy="64" r="4" fill="url(#accent)"/>

  <circle cx="1060" cy="62" r="12" fill="#0b1016" stroke="#223042"/>
  <circle cx="1060" cy="62" r="4" fill="#8fa2b5"/>

  <circle cx="1095" cy="62" r="12" fill="#0b1016" stroke="#223042"/>
  <rect x="1091" y="58" width="8" height="8" rx="2" fill="#57d6ff"/>

  <circle cx="1130" cy="62" r="14" fill="none" stroke="#57d6ff" stroke-opacity="0.4"/>
  <circle cx="1130" cy="62" r="11" fill="#0b1016" stroke="#57d6ff"/>
  <rect x="1126" y="58" width="8" height="8" rx="2" fill="#57d6ff"/>

  <!-- Body -->
  <rect x="60" y="110" width="1080" height="740" rx="12" fill="#0b1016" stroke="#1f2b38"/>

  <!-- Running banner -->
  <rect x="80" y="130" width="1040" height="60" rx="12" fill="#0f151d" stroke="#1f2b38"/>
  <text x="100" y="160" fill="#eef3f8" font-size="12" font-family="Sora, Space Grotesk, sans-serif">Running: build device flow + apply approvals + tests</text>
  <rect x="100" y="170" width="920" height="8" rx="4" fill="#1b2632"/>
  <rect x="100" y="170" width="380" height="8" rx="4" fill="url(#accent)"/>
  <text x="1030" y="175" fill="#7f93a6" font-size="10" font-family="JetBrains Mono, Consolas, monospace">41%</text>

  <!-- Activity + editing -->
  <rect x="80" y="210" width="1040" height="240" rx="12" fill="#0f151d" stroke="#1f2b38"/>
  <text x="100" y="236" fill="#7f93a6" font-size="11" font-family="Sora, Space Grotesk, sans-serif" letter-spacing="1">LIVE ACTIVITY</text>
  <rect x="100" y="248" width="48" height="18" rx="9" fill="#0b1016" stroke="url(#accent)"/>
  <text x="114" y="261" fill="#57d6ff" font-size="9" font-family="JetBrains Mono, Consolas, monospace">LIVE</text>

  <text x="170" y="262" fill="#8fa2b5" font-size="10" font-family="JetBrains Mono, Consolas, monospace">streaming events</text>

  <text x="100" y="290" fill="#c7d3df" font-size="11" font-family="JetBrains Mono, Consolas, monospace">[12:06:02] searching repo for auth patterns</text>
  <text x="100" y="310" fill="#c7d3df" font-size="11" font-family="JetBrains Mono, Consolas, monospace">[12:06:11] draft patch: src/auth/AuthManager.ts</text>
  <text x="100" y="330" fill="#c7d3df" font-size="11" font-family="JetBrains Mono, Consolas, monospace">[12:06:23] apply patch: 42 lines changed</text>
  <text x="100" y="350" fill="#c7d3df" font-size="11" font-family="JetBrains Mono, Consolas, monospace">[12:06:28] awaiting approval: npm run test</text>

  <text x="600" y="236" fill="#7f93a6" font-size="11" font-family="Sora, Space Grotesk, sans-serif" letter-spacing="1">EDITING</text>
  <text x="600" y="260" fill="#8fa2b5" font-size="10" font-family="JetBrains Mono, Consolas, monospace">active: src/auth/AuthManager.ts</text>
  <rect x="600" y="270" width="500" height="140" rx="10" fill="#0b1016" stroke="#223042"/>
  <text x="618" y="292" fill="#57d6ff" font-size="11" font-family="JetBrains Mono, Consolas, monospace">+ const deviceFlow = await startDeviceFlow()</text>
  <text x="618" y="312" fill="#57d6ff" font-size="11" font-family="JetBrains Mono, Consolas, monospace">+ await approvalGate.request("open verification uri")</text>
  <text x="618" y="332" fill="#9aa9b8" font-size="11" font-family="JetBrains Mono, Consolas, monospace">- legacyToken = ""</text>
  <text x="618" y="352" fill="#57d6ff" font-size="11" font-family="JetBrains Mono, Consolas, monospace">+ await pollForToken()</text>

  <!-- Approvals + Long task -->
  <rect x="80" y="470" width="1040" height="160" rx="12" fill="#0f151d" stroke="#1f2b38"/>

  <text x="100" y="496" fill="#7f93a6" font-size="11" font-family="Sora, Space Grotesk, sans-serif" letter-spacing="1">APPROVAL QUEUE</text>
  <text x="100" y="520" fill="#c7d3df" font-size="11" font-family="JetBrains Mono, Consolas, monospace">command: npm run test</text>
  <rect x="100" y="535" width="80" height="24" rx="8" fill="#0b1016" stroke="url(#accent)"/>
  <text x="118" y="552" fill="#57d6ff" font-size="10" font-family="Sora, Space Grotesk, sans-serif">approve</text>
  <rect x="186" y="535" width="80" height="24" rx="8" fill="#0b1016" stroke="#2a394a"/>
  <text x="214" y="552" fill="#8fa2b5" font-size="10" font-family="Sora, Space Grotesk, sans-serif">deny</text>

  <text x="600" y="496" fill="#7f93a6" font-size="11" font-family="Sora, Space Grotesk, sans-serif" letter-spacing="1">LONG TASK</text>
  <text x="600" y="520" fill="#c7d3df" font-size="11" font-family="JetBrains Mono, Consolas, monospace">indexing repo: 47% · eta 14m</text>
  <rect x="600" y="532" width="460" height="8" rx="4" fill="#1b2632"/>
  <rect x="600" y="532" width="216" height="8" rx="4" fill="url(#accent)"/>
  <text x="600" y="556" fill="#7f93a6" font-size="10" font-family="JetBrains Mono, Consolas, monospace">embedding: docs + code chunks</text>

  <!-- Diff preview -->
  <text x="80" y="660" fill="#7f93a6" font-size="11" font-family="Sora, Space Grotesk, sans-serif" letter-spacing="1">DIFF PREVIEW</text>
  <rect x="80" y="675" width="1040" height="110" rx="12" fill="#0f151d" stroke="#1f2b38"/>
  <text x="100" y="700" fill="#8fa2b5" font-size="10" font-family="JetBrains Mono, Consolas, monospace">src/auth/AuthManager.ts</text>
  <rect x="100" y="710" width="1000" height="60" rx="8" fill="#0b1016" stroke="#223042"/>
  <text x="118" y="732" fill="#57d6ff" font-size="11" font-family="JetBrains Mono, Consolas, monospace">+ await approvalGate.request(command)</text>
  <text x="118" y="752" fill="#9aa9b8" font-size="11" font-family="JetBrains Mono, Consolas, monospace">- run(command)</text>

  <!-- Composer bar + icons -->
  <rect x="80" y="805" width="1040" height="45" rx="10" fill="#0b1016" stroke="#223042"/>

  <circle cx="105" cy="828" r="10" fill="#0b1016" stroke="#223042"/>
  <line x1="101" y1="828" x2="109" y2="828" stroke="#8fa2b5" stroke-width="1.3"/>
  <line x1="105" y1="824" x2="105" y2="832" stroke="#8fa2b5" stroke-width="1.3"/>

  <circle cx="133" cy="828" r="10" fill="#0b1016" stroke="#223042"/>
  <circle cx="133" cy="828" r="4" fill="none" stroke="#8fa2b5" stroke-width="1.1"/>
  <line x1="133" y1="828" x2="137" y2="824" stroke="#8fa2b5" stroke-width="1.1"/>

  <circle cx="161" cy="828" r="10" fill="#0b1016" stroke="#223042"/>
  <path d="M157 826 L161 822 L165 826" stroke="#8fa2b5" stroke-width="1.1" fill="none"/>
  <rect x="158" y="826" width="6" height="6" rx="1" stroke="#8fa2b5" fill="none" stroke-width="1.1"/>

  <circle cx="189" cy="828" r="10" fill="#0b1016" stroke="#223042"/>
  <path d="M189 822 L191 826 L195 826 L192 829 L193 833 L189 831 L185 833 L186 829 L183 826 L187 826 Z" fill="#8fa2b5"/>

  <circle cx="217" cy="828" r="10" fill="#0b1016" stroke="#223042"/>
  <path d="M213 828 L221 828" stroke="#8fa2b5" stroke-width="1.1"/>
  <circle cx="216" cy="828" r="2" fill="#8fa2b5"/>

  <text x="250" y="833" fill="#6f8193" font-size="11" font-family="Sora, Space Grotesk, sans-serif">message NAVI... (shift+enter)</text>
  <rect x="980" y="816" width="120" height="22" rx="8" fill="url(#accent)"/>
  <text x="1020" y="832" fill="#0a0d10" font-size="10" font-family="Sora, Space Grotesk, sans-serif">send</text>
</svg>
