<svg xmlns="http://www.w3.org/2000/svg" width="1200" height="900" viewBox="0 0 1200 900">
  <defs>
    <pattern id="grid" width="28" height="28" patternUnits="userSpaceOnUse">
      <path d="M 28 0 L 0 0 0 28" fill="none" stroke="#151923" stroke-width="1"/>
    </pattern>
    <linearGradient id="ai" x1="0" y1="0" x2="1" y2="0">
      <stop offset="0" stop-color="#00aaff"/>
      <stop offset="1" stop-color="#9947eb"/>
    </linearGradient>
  </defs>

  <rect width="1200" height="900" fill="#0b0c0f"/>
  <rect width="1200" height="900" fill="url(#grid)" opacity="0.55"/>

  <!-- Panel -->
  <rect x="40" y="30" width="1120" height="840" rx="18" fill="#111317" stroke="#2b303b" stroke-width="2"/>

  <!-- Header -->
  <rect x="40" y="30" width="1120" height="64" rx="18" fill="#181b20"/>
  <text x="70" y="70" fill="#e9eaed" font-size="18" font-family="Inter, sans-serif" font-weight="600">NAVI</text>
  <text x="128" y="70" fill="#818898" font-size="12" font-family="Inter, sans-serif">agent.console</text>
  <circle cx="112" cy="64" r="4" fill="#00aaff"/>

  <circle cx="1065" cy="62" r="12" fill="#111317" stroke="#2b303b"/>
  <circle cx="1065" cy="62" r="4" fill="#e9eaed"/>

  <circle cx="1105" cy="62" r="12" fill="#111317" stroke="#2b303b"/>
  <rect x="1101" y="58" width="8" height="8" rx="2" fill="#00aaff"/>

  <circle cx="1140" cy="62" r="14" fill="none" stroke="#00aaff" stroke-opacity="0.5"/>
  <circle cx="1140" cy="62" r="11" fill="#111317" stroke="#00aaff"/>
  <rect x="1136" y="58" width="8" height="8" rx="2" fill="#00aaff"/>

  <!-- Body -->
  <rect x="60" y="110" width="1080" height="740" rx="12" fill="#16181d" stroke="#2b303b"/>

  <!-- Running banner -->
  <rect x="80" y="130" width="1040" height="60" rx="12" fill="#1a1d23" stroke="#2b303b"/>
  <text x="100" y="160" fill="#e9eaed" font-size="12" font-family="Inter, sans-serif">Running: build device flow + apply approvals + tests</text>
  <rect x="100" y="170" width="920" height="8" rx="4" fill="#2b303b"/>
  <rect x="100" y="170" width="380" height="8" rx="4" fill="url(#ai)"/>
  <text x="1030" y="175" fill="#818898" font-size="10" font-family="JetBrains Mono, monospace">41%</text>

  <!-- Live activity + editing -->
  <rect x="80" y="210" width="1040" height="240" rx="12" fill="#1a1d23" stroke="#2b303b"/>
  <text x="100" y="236" fill="#818898" font-size="11" font-family="Inter, sans-serif" letter-spacing="1">LIVE ACTIVITY</text>
  <rect x="100" y="248" width="48" height="18" rx="9" fill="#111317" stroke="url(#ai)"/>
  <text x="114" y="261" fill="#00aaff" font-size="9" font-family="JetBrains Mono, monospace">LIVE</text>
  <text x="170" y="262" fill="#818898" font-size="10" font-family="JetBrains Mono, monospace">streaming events</text>

  <text x="100" y="290" fill="#d5d7dd" font-size="11" font-family="JetBrains Mono, monospace">[12:06:02] searching repo for auth patterns</text>
  <text x="100" y="310" fill="#d5d7dd" font-size="11" font-family="JetBrains Mono, monospace">[12:06:11] draft patch: src/auth/AuthManager.ts</text>
  <text x="100" y="330" fill="#d5d7dd" font-size="11" font-family="JetBrains Mono, monospace">[12:06:23] apply patch: 42 lines changed</text>
  <text x="100" y="350" fill="#d5d7dd" font-size="11" font-family="JetBrains Mono, monospace">[12:06:28] awaiting approval: npm run test</text>

  <text x="600" y="236" fill="#818898" font-size="11" font-family="Inter, sans-serif" letter-spacing="1">EDITING</text>
  <text x="600" y="260" fill="#818898" font-size="10" font-family="JetBrains Mono, monospace">active: src/auth/AuthManager.ts</text>
  <rect x="600" y="270" width="500" height="140" rx="10" fill="#0d0f12" stroke="#2b303b"/>
  <text x="618" y="292" fill="#4dc3ff" font-size="11" font-family="JetBrains Mono, monospace">+ const deviceFlow = await startDeviceFlow()</text>
  <text x="618" y="312" fill="#4dc3ff" font-size="11" font-family="JetBrains Mono, monospace">+ await approvalGate.request("open verification uri")</text>
  <text x="618" y="332" fill="#676f7e" font-size="11" font-family="JetBrains Mono, monospace">- legacyToken = ""</text>
  <text x="618" y="352" fill="#4dc3ff" font-size="11" font-family="JetBrains Mono, monospace">+ await pollForToken()</text>

  <!-- Approvals + Long task -->
  <rect x="80" y="470" width="1040" height="160" rx="12" fill="#1a1d23" stroke="#2b303b"/>

  <text x="100" y="496" fill="#818898" font-size="11" font-family="Inter, sans-serif" letter-spacing="1">APPROVAL QUEUE</text>
  <text x="100" y="520" fill="#d5d7dd" font-size="11" font-family="JetBrains Mono, monospace">command: npm run test</text>
  <rect x="100" y="535" width="80" height="24" rx="8" fill="#111317" stroke="url(#ai)"/>
  <text x="118" y="552" fill="#00aaff" font-size="10" font-family="Inter, sans-serif">approve</text>
  <rect x="186" y="535" width="80" height="24" rx="8" fill="#111317" stroke="#2b303b"/>
  <text x="214" y="552" fill="#818898" font-size="10" font-family="Inter, sans-serif">deny</text>

  <text x="600" y="496" fill="#818898" font-size="11" font-family="Inter, sans-serif" letter-spacing="1">LONG TASK</text>
  <text x="600" y="520" fill="#d5d7dd" font-size="11" font-family="JetBrains Mono, monospace">indexing repo: 47% · eta 14m</text>
  <rect x="600" y="532" width="460" height="8" rx="4" fill="#2b303b"/>
  <rect x="600" y="532" width="216" height="8" rx="4" fill="url(#ai)"/>
  <text x="600" y="556" fill="#818898" font-size="10" font-family="JetBrains Mono, monospace">embedding: docs + code chunks</text>

  <!-- Diff preview -->
  <text x="80" y="660" fill="#818898" font-size="11" font-family="Inter, sans-serif" letter-spacing="1">DIFF PREVIEW</text>
  <rect x="80" y="675" width="1040" height="110" rx="12" fill="#1a1d23" stroke="#2b303b"/>
  <text x="100" y="700" fill="#818898" font-size="10" font-family="JetBrains Mono, monospace">src/auth/AuthManager.ts</text>
  <rect x="100" y="710" width="1000" height="60" rx="8" fill="#0d0f12" stroke="#2b303b"/>
  <text x="118" y="732" fill="#4dc3ff" font-size="11" font-family="JetBrains Mono, monospace">+ await approvalGate.request(command)</text>
  <text x="118" y="752" fill="#676f7e" font-size="11" font-family="JetBrains Mono, monospace">- run(command)</text>

  <!-- Composer bar + icons -->
  <rect x="80" y="805" width="1040" height="45" rx="10" fill="#111317" stroke="#2b303b"/>

  <circle cx="105" cy="828" r="10" fill="#111317" stroke="#2b303b"/>
  <line x1="101" y1="828" x2="109" y2="828" stroke="#e9eaed" stroke-width="1.1"/>
  <line x1="105" y1="824" x2="105" y2="832" stroke="#e9eaed" stroke-width="1.1"/>

  <circle cx="133" cy="828" r="10" fill="#111317" stroke="#2b303b"/>
  <circle cx="133" cy="828" r="4" fill="none" stroke="#e9eaed" stroke-width="1.1"/>
  <line x1="133" y1="828" x2="137" y2="824" stroke="#e9eaed" stroke-width="1.1"/>

  <circle cx="161" cy="828" r="10" fill="#111317" stroke="#2b303b"/>
  <path d="M157 826 L161 822 L165 826" stroke="#e9eaed" stroke-width="1.1" fill="none"/>
  <rect x="158" y="826" width="6" height="6" rx="1" stroke="#e9eaed" fill="none" stroke-width="1.1"/>

  <circle cx="189" cy="828" r="10" fill="#111317" stroke="#2b303b"/>
  <path d="M189 822 L191 826 L195 826 L192 829 L193 833 L189 831 L185 833 L186 829 L183 826 L187 826 Z" fill="#e9eaed"/>

  <circle cx="217" cy="828" r="10" fill="#111317" stroke="#2b303b"/>
  <path d="M213 828 L221 828" stroke="#e9eaed" stroke-width="1.1"/>
  <circle cx="216" cy="828" r="2" fill="#e9eaed"/>

  <text x="250" y="833" fill="#818898" font-size="11" font-family="Inter, sans-serif">message NAVI... (shift+enter)</text>
  <rect x="980" y="816" width="120" height="22" rx="8" fill="url(#ai)"/>
  <text x="1020" y="832" fill="#0b0c0f" font-size="10" font-family="Inter, sans-serif">send</text>
</svg>
